<?xml version="1.0" standalone="no"?><!DOCTYPE svg PUBLIC "-//W3C//DTD SVG 1.1//EN" "http://www.w3.org/Graphics/SVG/1.1/DTD/svg11.dtd"><svg class="icon" width="200px" height="200.00px" viewBox="0 0 1024 1024" version="1.1" xmlns="http://www.w3.org/2000/svg"><path fill="#2c2c2c" d="M347.975 324.51875c-38.8125 0-70.284375 31.471875-70.284375 70.284375s31.471875 70.284375 70.284375 70.284375 70.284375-31.471875 70.284375-70.284375-31.471875-70.284375-70.284375-70.284375m293.878125 42.103125c-18.815625-22.021875-52.9875-21.76875-71.55 0.50625L371.346875 605.740625l-60.58125-60.58125c-18.309375-18.309375-48.009375-18.309375-66.31875 0l-60.58125 60.58125V277.60625h656.26875v320.2875l-198.28125-231.271875z m198.28125-135.84375H183.865625c-25.903125 0-46.9125 20.925-46.9125 46.9125v468.7875c0 25.903125 21.009375 46.9125 46.9125 46.9125h656.26875c25.903125 0 46.9125-21.009375 46.9125-46.9125V277.60625c-0.084375-25.903125-21.009375-46.828125-46.9125-46.828125z"  /></svg>